Land_normalized_pl05_filtered_grf
version=1
nRows=15
nColumns=37
inDegrees=yes
endheader
time		1_ground_force_vx		1_ground_force_vy		1_ground_force_vz		1_ground_force_px		1_ground_force_py		1_ground_force_pz		1_ground_torque_x		1_ground_torque_y		1_ground_torque_z		2_ground_force_vx		2_ground_force_vy		2_ground_force_vz		2_ground_force_px		2_ground_force_py		2_ground_force_pz		2_ground_torque_x		2_ground_torque_y		2_ground_torque_z		3_ground_force_vx		3_ground_force_vy		3_ground_force_vz		3_ground_force_px		3_ground_force_py		3_ground_force_pz		3_ground_torque_x		3_ground_torque_y		3_ground_torque_z		4_ground_force_vx		4_ground_force_vy		4_ground_force_vz		4_ground_force_px		4_ground_force_py		4_ground_force_pz		4_ground_torque_x		4_ground_torque_y		4_ground_torque_z		
1.060333		-33.250409		786.930984		344.817427		0.131044		0.000000		0.178491		-0.706750		16.726520		7.329222		58.409044		838.093974		309.448036		-0.201864		0.000000		0.202895		2.972975		42.658299		15.750709		-0.336652		-0.281561		-0.835544		0.413117		1.262728		1.873402		0.030213		0.008929		0.023258		-1.604597		-1.590528		-2.030824		-0.353498		1.255910		1.900767		0.034089		-0.027375		0.037789		
1.063389		-33.031460		792.404963		336.000777		0.131347		0.000000		0.179403		-0.708897		17.006025		7.210991		58.449830		839.008976		297.263509		-0.200186		0.000000		0.203622		2.916718		41.867596		14.833887		-0.354483		-0.346881		-0.802830		0.413106		1.262723		1.873342		0.029488		0.009457		0.022570		-1.592236		-1.651164		-1.974753		-0.353482		1.255893		1.900670		0.033656		-0.030769		0.038713		
1.066444		-32.342587		802.824495		328.013908		0.131809		0.000000		0.180660		-0.706499		17.537120		7.165212		59.379824		843.369858		285.385799		-0.198716		0.000000		0.204947		2.896660		41.141214		13.921710		-0.357342		-0.398758		-0.763455		0.413095		1.262716		1.873286		0.028621		0.010384		0.021596		-1.568406		-1.703995		-1.940507		-0.353467		1.255877		1.900576		0.032790		-0.034743		0.039584		
1.069500		-31.368969		816.689931		321.001253		0.132379		0.000000		0.182036		-0.700168		18.228843		7.164875		60.931881		849.188519		274.941336		-0.197556		0.000000		0.206419		2.909744		40.552195		13.129563		-0.347933		-0.431568		-0.711550		0.413085		1.262707		1.873234		0.027785		0.011720		0.020297		-1.540825		-1.741992		-1.928763		-0.353455		1.255865		1.900486		0.031640		-0.039020		0.040305		
1.072556		-30.329707		832.641944		314.896204		0.133030		0.000000		0.183378		-0.692043		18.998727		7.185098		62.852120		854.887349		266.663685		-0.196729		0.000000		0.207707		2.952431		40.157716		12.526348		-0.324489		-0.443634		-0.647043		0.413075		1.262695		1.873187		0.027140		0.013384		0.018703		-1.514016		-1.759933		-1.937450		-0.353445		1.255856		1.900405		0.030377		-0.043282		0.040765		
1.075611		-29.445862		849.487920		309.467680		0.133744		0.000000		0.184605		-0.685674		19.781199		7.206250		64.917061		859.371033		260.863638		-0.196208		0.000000		0.208613		3.020428		39.984409		12.137346		-0.282614		-0.437894		-0.575910		0.413067		1.262682		1.873145		0.026795		0.015235		0.016930		-1.488726		-1.755576		-1.961975		-0.353436		1.255848		1.900333		0.029180		-0.047211		0.040878		
1.078667		-28.911047		866.241644		304.396986		0.134514		0.000000		0.185697		-0.685197		20.530139		7.214258		66.932688		862.014725		257.486851		-0.195934		0.000000		0.209058		3.107644		40.022816		11.954955		-0.218503		-0.421073		-0.508062		0.413062		1.262669		1.873107		0.026793		0.017125		0.015156		-1.462855		-1.729824		-1.996547		-0.353429		1.255842		1.900271		0.028206		-0.050523		0.040611		
1.081722		-28.872760		882.119522		299.352567		0.135340		0.000000		0.186676		-0.694368		21.214319		7.199186		68.724318		862.597742		256.174494		-0.195832		0.000000		0.209052		3.205007		40.227812		11.946865		-0.132002		-0.402150		-0.454262		0.413061		1.262658		1.873075		0.027107		0.018937		0.013593		-1.433300		-1.686663		-2.035314		-0.353423		1.255836		1.900219		0.027576		-0.053007		0.040006		
1.084778		-29.420912		896.542881		294.055203		0.136223		0.000000		0.187585		-0.715798		21.812477		7.154212		70.137541		861.210716		256.352707		-0.195827		0.000000		0.208671		3.300612		40.527768		12.063722		-0.027860		-0.390134		-0.423042		0.413064		1.262649		1.873050		0.027657		0.020603		0.012448		-1.397982		-1.632624		-2.073195		-0.353417		1.255830		1.900180		0.027352		-0.054542		0.039192		
1.087833		-30.582973		909.141428		288.304240		0.137161		0.000000		0.188473		-0.750598		22.313029		7.075831		71.050647		858.150927		257.341636		-0.195842		0.000000		0.208023		3.381321		40.839613		12.246959		0.084826		-0.391961		-0.418539		0.413070		1.262644		1.873031		0.028330		0.022088		0.011885		-1.357214		-1.575887		-2.106121		-0.353413		1.255825		1.900152		0.027521		-0.055107		0.038359		
1.090889		-32.326066		919.754332		281.968076		0.138151		0.000000		0.189389		-0.798397		22.716293		6.964103		71.391813		853.824323		258.467527		-0.195812		0.000000		0.207232		3.435295		41.085069		12.437173		0.194089		-0.411171		-0.439742		0.413083		1.262644		1.873020		0.029003		0.023370		0.011985		-1.313902		-1.525021		-2.130955		-0.353410		1.255819		1.900137		0.028009		-0.054770		0.037720		
1.093944		-34.565914		928.424936		274.960360		0.139185		0.000000		0.190373		-0.857618		23.035215		6.822058		71.149275		848.666076		259.155226		-0.195689		0.000000		0.206412		3.454329		41.203112		12.582102		0.286836		-0.447394		-0.480996		0.413100		1.262647		1.873018		0.029554		0.024418		0.012734		-1.272526		-1.487735		-2.145434		-0.353407		1.255813		1.900134		0.028710		-0.053674		0.037461		
1.097000		-37.176385		935.381181		267.223168		0.140253		0.000000		0.191466		-0.925728		23.291886		6.654112		70.365907		843.088106		258.982520		-0.195439		0.000000		0.205660		3.434914		41.155368		12.642239		0.350876		-0.496495		-0.533252		0.413121		1.262652		1.873025		0.029891		0.025188		0.014011		-1.237451		-1.469856		-2.148382		-0.353404		1.255805		1.900142		0.029513		-0.052007		0.037703		
1.100056		-39.994716		940.997787		258.717565		0.141345		0.000000		0.192695		-0.999380		23.513447		6.464775		69.120111		837.455894		257.687262		-0.195052		0.000000		0.205047		3.377706		40.924117		12.592453		0.377018		-0.551368		-0.585737		0.413145		1.262660		1.873041		0.029954		0.025625		0.015623		-1.211484		-1.474724		-2.139999		-0.353400		1.255797		1.900162		0.030326		-0.049979		0.038477		
1.103111		-42.822553		945.759558		249.428655		0.142445		0.000000		0.194072		-1.074515		23.731227		6.258718		67.511210		832.082880		255.156816		-0.194528		0.000000		0.204616		3.286721		40.509169		12.422071		0.361382		-0.603377		-0.628018		0.413172		1.262669		1.873068		0.029743		0.025670		0.017332		-1.195316		-1.502702		-2.122066		-0.353395		1.255788		1.900192		0.031090		-0.047792		0.039720		
